<svg width="512" height="512" viewBox="0 0 512 512" fill="none" xmlns="http://www.w3.org/2000/svg">
<g clip-path="url(#clip0_2_2)">
<path d="M510.404 -275.264L390.054 18.6401" stroke="white" stroke-width="4.13198" stroke-miterlimit="10" stroke-dasharray="20.48 20.48"/>
<path d="M386.171 28.1209L382.257 37.6803" stroke="white" stroke-width="4.13198" stroke-miterlimit="10"/>
<path d="M249.093 -1.62933L245.179 7.93002" stroke="white" stroke-width="4.13198" stroke-miterlimit="10"/>
<path d="M314.496 142.631C312.923 142.372 311.313 142.458 309.776 142.881C303.132 104.99 279.413 77.1317 252.024 77.9461C224.559 78.7628 202.487 108.14 198.193 146.515C196.324 145.929 194.333 145.841 192.42 146.262C183.99 148.199 179.489 159.921 182.367 172.442C185.146 184.525 193.779 192.907 201.956 191.739C210.897 221.329 222.415 243.943 243.299 247.179C248.914 248.049 253.776 244.614 258.218 244.483C262.612 244.352 268.036 247.971 271.676 246.537C293.713 237.856 302.311 218.571 309.014 188.625C316.773 188.302 324.144 179.733 326.088 168.168C328.217 155.499 323.027 144.064 314.496 142.631Z" fill="#E9966E"/>
<path d="M241.913 142.047C239.042 142.51 236.129 142.647 233.228 142.458C231.807 142.386 230.397 142.252 228.995 142.081L226.948 141.804C226.327 141.713 225.703 141.648 225.077 141.607C222.545 141.419 220.001 141.503 217.487 141.858C216.841 141.942 216.196 142.056 215.54 142.173C214.853 142.31 214.134 142.443 213.424 142.556C211.971 142.796 210.501 142.927 209.027 142.95C210.109 141.949 211.263 141.029 212.479 140.198C213.078 139.789 213.666 139.393 214.291 139.013C214.95 138.616 215.635 138.263 216.341 137.957C219.218 136.721 222.354 136.204 225.477 136.454C226.255 136.533 227.034 136.624 227.8 136.779C228.588 136.947 229.204 137.092 229.91 137.276C231.276 137.63 232.636 138.023 233.985 138.478C236.753 139.366 239.413 140.564 241.913 142.047ZM265.854 141.677C268.457 140.383 271.198 139.386 274.025 138.704C275.403 138.351 276.788 138.06 278.178 137.806C278.895 137.675 279.519 137.577 280.318 137.468C281.095 137.37 281.876 137.336 282.66 137.316C285.792 137.297 288.88 138.044 291.659 139.49C292.341 139.848 292.998 140.251 293.626 140.695C294.22 141.119 294.777 141.558 295.344 142.011C296.495 142.93 297.579 143.932 298.583 145.011C297.115 144.878 295.66 144.639 294.227 144.293C293.528 144.127 292.821 143.941 292.147 143.753C291.5 143.589 290.866 143.427 290.227 143.295C287.747 142.756 285.215 142.483 282.676 142.484C282.049 142.479 281.423 142.498 280.796 142.543L278.733 142.667C277.323 142.734 275.908 142.763 274.485 142.729C271.578 142.704 268.682 142.351 265.854 141.677Z" fill="#38101B"/>
<path d="M321.749 165.311C322.476 157.87 320.644 151.601 317.657 151.31C314.671 151.018 311.66 156.814 310.934 164.255C310.206 171.696 312.039 177.965 315.025 178.256C318.012 178.548 321.022 172.753 321.749 165.311Z" fill="#B86A55"/>
<path d="M194.984 181.825C197.948 181.358 199.404 174.99 198.236 167.606C197.069 160.221 193.72 154.614 190.755 155.083C187.791 155.552 186.335 161.919 187.503 169.302C188.67 176.687 192.019 182.294 194.984 181.825Z" fill="#B86A55"/>
<path d="M198.193 146.515C198.7 150.307 199.042 154.081 199.339 157.854L200.161 169.153C200.256 171.037 200.411 172.914 200.538 174.794L200.936 180.431C201.236 184.189 201.536 187.937 201.956 191.739C200.559 188.172 199.547 184.466 198.935 180.685C198.28 176.926 197.83 173.134 197.584 169.326C197.348 165.524 197.238 161.718 197.331 157.913C197.379 154.099 197.667 150.292 198.193 146.515ZM310.106 143.187C310.856 146.927 311.37 150.71 311.643 154.513C311.963 158.307 312.079 162.113 312.069 165.921C312.05 169.737 311.825 173.549 311.394 177.34C311.01 181.152 310.219 184.911 309.036 188.554C309.23 184.734 309.308 180.975 309.382 177.206L309.445 171.555C309.46 169.671 309.503 167.788 309.485 165.902L309.635 154.574C309.707 150.79 309.825 147.002 310.106 143.187Z" fill="#B86A55"/>
<path d="M273.661 159.121C274.152 157.761 275.057 156.589 276.249 155.77C277.523 154.858 279.086 154.44 280.646 154.593C282.187 154.778 283.619 155.48 284.709 156.585C285.198 157.109 285.636 157.677 286.017 158.284C286.333 158.913 286.593 159.568 286.796 160.242C286.202 159.915 285.63 159.548 285.085 159.145C284.517 158.833 284.004 158.474 283.477 158.202C282.521 157.663 281.472 157.31 280.385 157.163C279.3 157.061 278.207 157.199 277.183 157.568C275.971 157.995 274.793 158.515 273.661 159.121ZM220.531 158.943C220.863 157.535 221.627 156.267 222.718 155.318C223.88 154.265 225.384 153.67 226.951 153.643C228.504 153.65 230.007 154.184 231.215 155.157C231.761 155.621 232.262 156.136 232.71 156.694C233.095 157.283 233.429 157.904 233.708 158.55C233.081 158.293 232.47 157.994 231.883 157.656C231.282 157.413 230.732 157.113 230.177 156.903C229.166 156.478 228.083 156.249 226.986 156.227C225.897 156.25 224.827 156.512 223.852 156.995C222.697 157.559 221.587 158.21 220.531 158.943Z" fill="#38101B"/>
<path d="M327.583 120.419C327.53 118.571 327.068 116.758 326.232 115.109C325.396 113.461 324.205 112.018 322.744 110.885C322.716 110.738 322.681 110.597 322.653 110.452C324.532 108.828 325.887 106.683 326.547 104.289C327.207 101.895 327.142 99.3584 326.36 97.0014C325.578 94.6441 324.116 92.5716 322.155 91.0463C320.195 89.5208 317.827 88.6112 315.35 88.4322C316.062 86.2828 316.178 83.9805 315.685 81.7704C315.193 79.5603 314.11 77.5252 312.552 75.8819C310.995 74.2386 309.019 73.0486 306.839 72.4386C304.658 71.8285 302.354 71.8215 300.169 72.4179C300.169 72.3007 300.179 72.1861 300.176 72.0682C300.101 69.4589 299.212 66.9384 297.637 64.8576C296.061 62.7767 293.875 61.2391 291.384 60.459C288.894 59.6787 286.221 59.6949 283.74 60.505C281.259 61.3151 279.092 62.879 277.541 64.9786C276.299 63.4888 274.728 62.3077 272.952 61.5281C271.177 60.7486 269.244 60.392 267.307 60.4865C265.37 60.581 263.481 61.1239 261.79 62.0725C260.098 63.0211 258.65 64.3495 257.559 65.953C256.77 65.9501 255.988 65.9587 255.212 65.9752C254.176 63.5284 252.39 61.4737 250.111 60.1075C247.832 58.7413 245.178 58.1341 242.532 58.3737C239.886 58.6131 237.384 59.6868 235.388 61.4399C233.392 63.1931 232.004 65.535 231.424 68.1279C229.497 66.9166 227.278 66.2517 225.002 66.2043C222.727 66.1569 220.481 66.7287 218.506 67.8588C216.531 68.9888 214.9 70.6346 213.788 72.62C212.675 74.6054 212.124 76.8558 212.191 79.1307C212.201 79.4606 212.234 79.7838 212.269 80.1066C210.009 79.2304 207.543 79.028 205.171 79.5237C202.799 80.0195 200.62 81.1922 198.9 82.9C197.18 84.6078 195.992 86.7774 195.479 89.1465C194.967 91.5154 195.151 93.9823 196.012 96.2484C194.181 96.5628 192.444 97.2806 190.925 98.3497C189.408 99.4193 188.147 100.813 187.233 102.429C186.321 104.047 185.78 105.847 185.65 107.7C185.519 109.552 185.803 111.41 186.479 113.139C184.448 115.534 183.391 118.606 183.52 121.744C183.649 124.884 184.955 127.858 187.178 130.078C187.208 130.339 187.233 130.609 187.264 130.867C185.92 132.36 184.954 134.157 184.448 136.103C183.942 138.048 183.912 140.087 184.361 142.047C184.809 144.006 185.722 145.831 187.023 147.364C188.323 148.896 189.974 150.094 191.834 150.855C195.578 161.279 199.878 165.879 199.878 165.879C199.878 165.879 199.517 159.814 199.784 151.383C201.969 150.812 203.959 149.663 205.544 148.055C207.13 146.447 208.253 144.442 208.793 142.249C209.333 140.057 209.271 137.76 208.613 135.6C207.956 133.439 206.728 131.497 205.059 129.976C206.742 128.258 207.891 126.089 208.371 123.732C208.851 121.376 208.638 118.929 207.761 116.69C208.402 115.938 208.951 115.114 209.4 114.232C210.776 115.176 212.328 115.835 213.963 116.17C215.597 116.505 217.283 116.51 218.921 116.184C220.558 115.858 222.113 115.209 223.495 114.274C224.878 113.338 226.059 112.135 226.97 110.737C229.38 111.786 232.059 112.049 234.627 111.487C237.194 110.926 239.52 109.568 241.272 107.609C241.965 109.283 243.013 110.787 244.344 112.017C245.675 113.247 247.257 114.174 248.981 114.732C250.705 115.291 252.529 115.47 254.329 115.255C256.128 115.041 257.86 114.438 259.404 113.49C259.619 116.138 260.669 118.652 262.404 120.665C264.139 122.678 266.469 124.087 269.058 124.691C271.647 125.293 274.359 125.057 276.806 124.018C279.252 122.978 281.304 121.188 282.667 118.906C283.638 121.262 285.303 123.266 287.44 124.652C289.579 126.04 292.088 126.742 294.635 126.668C294.715 129.327 295.636 131.89 297.267 133.992C298.897 136.093 301.153 137.622 303.709 138.358C302.986 140.615 302.919 143.031 303.517 145.325C304.114 147.618 305.351 149.693 307.084 151.311C308.594 158.769 309.682 164.724 309.682 164.724C309.682 164.724 312.064 160.561 314.873 154.675C315.259 154.699 315.647 154.711 316.041 154.7C318.651 154.624 321.172 153.736 323.253 152.159C325.335 150.583 326.872 148.397 327.652 145.904C328.432 143.413 328.414 140.74 327.603 138.258C326.791 135.777 325.226 133.61 323.125 132.06C323.261 131.386 323.378 130.723 323.477 130.071C324.819 128.856 325.881 127.363 326.59 125.697C327.299 124.029 327.638 122.229 327.583 120.419Z" fill="#350313"/>
<path d="M231.582 198.85C231.582 198.85 268.959 195.221 276.37 198.002C276.37 198.002 259.974 209.698 256.068 209.073C252.163 208.449 231.582 198.85 231.582 198.85Z" fill="#FDFFFF"/>
<path d="M231.582 198.85C231.582 198.85 242.652 214.398 256.108 212.685C269.566 210.971 276.37 198.002 276.37 198.002C269.5 201.665 261.861 203.652 254.078 203.799C246.294 203.946 238.586 202.251 231.582 198.85Z" fill="#D7645D"/>
<path d="M231.582 198.85C231.582 198.85 246.274 191.252 276.37 198.002C276.37 198.002 256.547 198.713 231.582 198.85Z" fill="#A75844"/>
<path d="M255.32 185.729C255.514 186.831 255.485 187.962 255.231 189.052C255 190.154 254.618 191.216 254.096 192.212C253.005 194.247 251.479 196.015 249.623 197.39C247.766 198.766 245.668 199.782 243.437 200.387C242.891 200.54 242.339 200.669 241.785 200.801C241.421 200.913 241.097 200.989 240.753 201.078C240.076 201.208 239.382 201.476 238.688 201.631C235.906 202.471 232.953 203.428 229.792 204.488C228.187 204.984 226.564 205.548 224.85 206.098C224.402 206.223 223.991 206.378 223.553 206.521C223.093 206.656 222.684 206.819 222.228 206.967C221.76 207.124 221.362 207.284 220.878 207.47C220.663 207.554 220.444 207.652 220.21 207.77C219.98 207.894 219.766 208.044 219.569 208.215C219.452 207.948 219.385 207.662 219.371 207.371C219.362 207.092 219.36 206.79 219.375 206.481C219.437 205.92 219.546 205.364 219.699 204.821C219.993 203.769 220.396 202.752 220.903 201.785C221.881 199.918 223.126 198.204 224.598 196.694C227.574 193.631 231.295 191.393 235.397 190.201C236.468 189.902 237.559 189.678 238.662 189.531C239.217 189.469 239.791 189.391 240.327 189.351C240.672 189.33 241.018 189.307 241.373 189.309C242.778 189.274 244.18 189.165 245.574 188.981C249.005 188.547 252.316 187.442 255.32 185.729Z" fill="#350313"/>
<path d="M254.161 185.763C257.262 187.294 260.634 188.201 264.084 188.43C265.486 188.532 266.893 188.558 268.297 188.508C268.65 188.486 268.998 188.487 269.344 188.488C269.88 188.497 270.459 188.54 271.017 188.568C272.126 188.65 273.228 188.81 274.316 189.044C278.481 189.989 282.328 192.002 285.481 194.884C287.039 196.303 288.384 197.94 289.472 199.746C290.036 200.682 290.499 201.673 290.854 202.705C291.04 203.238 291.181 203.786 291.277 204.343C291.31 204.65 291.326 204.951 291.334 205.231C291.337 205.522 291.287 205.812 291.186 206.085C290.979 205.926 290.756 205.79 290.52 205.679C290.279 205.576 290.054 205.49 289.835 205.419C289.341 205.262 288.933 205.126 288.458 204.998C287.994 204.876 287.576 204.738 287.109 204.631C286.663 204.514 286.244 204.384 285.787 204.286C284.045 203.839 282.392 203.373 280.76 202.973C277.541 202.102 274.536 201.322 271.709 200.65C271.007 200.536 270.299 200.309 269.615 200.221C269.267 200.151 268.938 200.095 268.568 200.004C268.008 199.906 267.449 199.81 266.895 199.69C264.632 199.218 262.477 198.328 260.541 197.064C258.608 195.803 256.978 194.128 255.769 192.163C255.188 191.199 254.744 190.161 254.447 189.076C254.13 188.002 254.033 186.876 254.161 185.763Z" fill="#350313"/>
<path d="M267.596 183.763C264.181 187.437 259.593 189.804 254.62 190.459C254.776 190.481 254.931 190.489 255.087 190.497L254.156 190.524C254.311 190.507 254.466 190.489 254.62 190.459C249.699 190.115 245.046 188.09 241.442 184.722L267.596 183.763Z" fill="#B86A55"/>
<path d="M287.502 187.144C295.146 187.144 301.343 182.458 301.343 176.676C301.343 170.894 295.146 166.208 287.502 166.208C279.858 166.208 273.661 170.894 273.661 176.676C273.661 182.458 279.858 187.144 287.502 187.144Z" fill="url(#paint0_radial_2_2)"/>
<path d="M220.531 187.144C228.175 187.144 234.372 182.458 234.372 176.676C234.372 170.894 228.175 166.208 220.531 166.208C212.887 166.208 206.69 170.894 206.69 176.676C206.69 182.458 212.887 187.144 220.531 187.144Z" fill="url(#paint1_radial_2_2)"/>
<path d="M394.828 158.441H17V216.265H394.828V158.441Z" stroke="white" stroke-width="3.09899" stroke-miterlimit="10"/>
<path d="M430.529 98.0082H352.434V360.554H430.529V98.0082Z" stroke="white" stroke-width="3.09899" stroke-miterlimit="10"/>
<path d="M501.186 299.112H305.48V326.713H501.186V299.112Z" stroke="white" stroke-width="3.09899" stroke-miterlimit="10"/>
<path d="M197.701 248.773H143.377V326.712H197.701V248.773Z" stroke="white" stroke-width="3.09899" stroke-miterlimit="10"/>
<path d="M266.519 431.583H126.332V529.759H266.519V431.583Z" stroke="white" stroke-width="3.09899" stroke-miterlimit="10"/>
<path d="M68.3192 312.913H22.5782V535.337H68.3192V312.913Z" stroke="white" stroke-width="3.09899" stroke-miterlimit="10"/>
<path d="M508.995 480.671H199.309V535.337H508.995V480.671Z" stroke="white" stroke-width="3.09899" stroke-miterlimit="10"/>
<path d="M291.287 103.586H245.614V234.116H291.287V103.586Z" stroke="white" stroke-width="3.09899" stroke-miterlimit="10"/>
<path d="M494.492 389.204H435.363V543.147H494.492V389.204Z" stroke="white" stroke-width="3.09899" stroke-miterlimit="10"/>
<path d="M305.48 346.795H242.419V453.896H305.48V346.795Z" stroke="white" stroke-width="3.09899" stroke-miterlimit="10"/>
<path d="M257.523 299.112H182.114V365.494H257.523V299.112Z" stroke="white" stroke-width="3.09899" stroke-miterlimit="10"/>
<path d="M458.172 521.283H53.3201L56.3365 505.148C75.7155 408.222 92.8013 353.029 92.8013 353.029C97.7596 323.248 120.713 313.631 120.713 313.631L138.036 308.238L199.386 289.149C203.083 288.003 206.505 286.107 209.437 283.581C209.514 283.525 209.586 283.463 209.654 283.395C212.38 281.014 214.624 278.131 216.265 274.904C217.298 272.885 218.082 270.748 218.599 268.54V268.53C218.661 268.261 218.723 268.003 218.775 267.735C218.827 267.507 218.868 267.29 218.909 267.063C218.982 266.671 219.044 266.278 219.095 265.885C219.126 265.7 219.147 265.514 219.168 265.317C219.199 265.049 219.23 264.77 219.25 264.501C219.281 264.243 219.291 263.985 219.312 263.727V263.623C219.333 263.414 219.343 263.204 219.343 262.993C219.353 262.663 219.364 262.342 219.364 262.012V223.987H290.455V262.012C290.458 266.089 291.337 270.118 293.034 273.825C294.731 277.532 297.205 280.831 300.289 283.498C300.446 283.648 300.612 283.789 300.784 283.922C303.626 286.275 306.9 288.05 310.422 289.149L372.784 308.559L372.95 308.61L389.106 313.631C411.222 323.868 419.093 353.029 419.093 353.029H419.217C419.217 353.029 436.293 408.222 455.682 505.148L458.172 521.283Z" fill="#E9966E"/>
<path d="M392.349 509.022L393.103 521.283H118.905L119.659 509.022L56.3366 505.148C75.7156 408.222 92.8014 353.029 92.8014 353.029C97.7596 323.248 120.713 313.631 120.713 313.631L138.036 308.238L199.386 289.149C203.083 288.003 206.505 286.107 209.437 283.581C209.514 283.525 209.587 283.463 209.654 283.395C212.38 281.014 214.624 278.131 216.265 274.904C217.299 272.885 218.082 270.748 218.599 268.54V268.53C218.661 268.261 218.723 268.003 218.775 267.735C218.827 267.507 218.868 267.29 218.909 267.063C218.982 266.671 219.044 266.278 219.095 265.885C219.126 265.7 219.147 265.514 219.168 265.317C219.199 265.049 219.23 264.77 219.25 264.501C219.281 264.243 219.291 263.985 219.312 263.727V263.623C219.333 263.414 219.343 263.204 219.343 262.993C219.353 262.663 219.364 262.342 219.364 262.012V223.987H290.455V262.012C290.458 266.089 291.337 270.118 293.034 273.825C294.731 277.532 297.205 280.831 300.289 283.498C300.446 283.648 300.612 283.789 300.785 283.922C303.626 286.275 306.9 288.05 310.422 289.149L372.784 308.559L372.95 308.61L389.106 313.631C411.222 323.868 419.093 353.029 419.093 353.029H419.217C419.217 353.029 436.293 408.222 455.682 505.148L392.349 509.022Z" fill="#ED9A72"/>
<path d="M458.172 521.283H53.3201L56.3365 505.148C75.7155 408.222 92.8013 353.029 92.8013 353.029C97.7596 323.248 120.713 313.631 120.713 313.631L138.036 308.238L199.386 289.149L224.777 327.132L229.208 333.764L253.639 370.321L280.197 332.359L287.314 322.173L310.422 289.149L372.784 308.559L372.95 308.61L389.106 313.631C411.222 323.868 419.093 353.029 419.093 353.029H419.217C419.217 353.029 436.293 408.222 455.682 505.148L458.172 521.283Z" fill="#D2D3D5"/>
<path d="M246.333 264.434C271.689 260.015 290.457 230.638 290.457 230.638C290.457 230.638 265.31 228.568 249.583 223.985H219.361V262.013C219.359 264.207 219.101 266.395 218.595 268.53L218.594 268.569C218.594 268.569 220.976 268.854 246.333 264.434Z" fill="#B86A55"/>
<path d="M314.161 142.189C312.589 141.931 310.978 142.017 309.441 142.439C302.797 104.549 279.078 76.6907 251.689 77.5051C224.224 78.3218 202.152 107.699 197.858 146.074C195.988 145.488 193.999 145.401 192.085 145.82C183.654 147.758 179.153 159.48 182.032 172.001C184.81 184.084 193.444 192.466 201.621 191.298C210.562 220.888 222.08 243.501 242.965 246.738C248.578 247.608 253.441 244.174 257.882 244.042C262.276 243.911 267.701 247.53 271.341 246.096C293.378 237.415 301.977 218.131 308.68 188.184C316.437 187.861 323.809 179.292 325.752 167.727C327.882 155.057 322.692 143.624 314.161 142.189Z" fill="#E9966E"/>
<path d="M241.578 141.606C238.708 142.069 235.794 142.206 232.893 142.017C231.472 141.946 230.063 141.811 228.661 141.64L226.613 141.363C225.991 141.273 225.369 141.207 224.743 141.166C222.211 140.978 219.665 141.061 217.151 141.417C216.505 141.5 215.861 141.615 215.204 141.732C214.517 141.869 213.799 142.001 213.089 142.115C211.635 142.355 210.165 142.486 208.692 142.509C209.773 141.509 210.927 140.588 212.144 139.757C212.743 139.349 213.331 138.952 213.955 138.572C214.614 138.175 215.3 137.822 216.006 137.516C218.883 136.28 222.02 135.763 225.141 136.013C225.92 136.092 226.698 136.183 227.466 136.338C228.253 136.506 228.868 136.651 229.574 136.834C230.942 137.19 232.301 137.582 233.649 138.037C236.417 138.925 239.077 140.122 241.578 141.606ZM265.519 141.236C268.122 139.942 270.863 138.945 273.69 138.264C275.068 137.91 276.453 137.618 277.843 137.366C278.56 137.235 279.185 137.136 279.983 137.027C280.759 136.928 281.542 136.895 282.324 136.875C285.456 136.857 288.546 137.603 291.323 139.049C292.005 139.407 292.662 139.809 293.29 140.254C293.885 140.679 294.442 141.117 295.009 141.57C296.161 142.489 297.243 143.491 298.248 144.569C296.781 144.437 295.324 144.198 293.892 143.852C293.192 143.686 292.486 143.5 291.811 143.312C291.165 143.148 290.53 142.986 289.893 142.854C287.411 142.314 284.879 142.043 282.34 142.043C281.714 142.039 281.087 142.058 280.461 142.102L278.398 142.226C276.987 142.293 275.572 142.323 274.15 142.289C271.243 142.263 268.347 141.91 265.519 141.236Z" fill="#38101B"/>
<path d="M321.414 164.869C322.142 157.428 320.309 151.16 317.323 150.868C314.336 150.576 311.326 156.371 310.599 163.813C309.872 171.254 311.704 177.523 314.691 177.814C317.677 178.106 320.687 172.311 321.414 164.869Z" fill="#B86A55"/>
<path d="M194.649 181.384C197.613 180.916 199.07 174.549 197.901 167.165C196.734 159.78 193.385 154.173 190.42 154.642C187.457 155.111 186 161.478 187.168 168.862C188.336 176.246 191.685 181.853 194.649 181.384Z" fill="#B86A55"/>
<path d="M197.858 146.074C198.365 149.866 198.707 153.64 199.004 157.413L199.827 168.713C199.922 170.596 200.076 172.474 200.203 174.353L200.601 179.99C200.9 183.748 201.201 187.496 201.621 191.298C200.224 187.731 199.211 184.026 198.601 180.244C197.946 176.485 197.494 172.693 197.249 168.885C197.012 165.083 196.902 161.277 196.995 157.472C197.043 153.658 197.331 149.851 197.858 146.074ZM309.772 142.746C310.52 146.486 311.035 150.269 311.309 154.072C311.628 157.866 311.745 161.672 311.734 165.48C311.715 169.296 311.49 173.108 311.06 176.899C310.674 180.711 309.884 184.47 308.701 188.113C308.895 184.293 308.972 180.534 309.047 176.765L309.109 171.114C309.125 169.23 309.168 167.347 309.151 165.461L309.3 154.133C309.373 150.349 309.49 146.561 309.772 142.746Z" fill="#B86A55"/>
<path d="M273.326 158.68C273.816 157.32 274.721 156.148 275.913 155.33C277.188 154.417 278.751 153.999 280.31 154.152C281.852 154.336 283.285 155.039 284.373 156.144C284.862 156.668 285.3 157.236 285.682 157.842C285.997 158.472 286.257 159.126 286.461 159.801C285.867 159.474 285.296 159.107 284.75 158.704C284.181 158.392 283.669 158.032 283.142 157.761C282.185 157.222 281.137 156.869 280.049 156.722C278.966 156.62 277.873 156.759 276.848 157.127C275.636 157.554 274.459 158.074 273.326 158.68ZM220.196 158.501C220.528 157.093 221.292 155.826 222.382 154.877C223.544 153.824 225.049 153.229 226.616 153.202C228.168 153.209 229.672 153.742 230.881 154.716C231.426 155.18 231.926 155.695 232.374 156.253C232.76 156.841 233.094 157.463 233.372 158.11C232.745 157.853 232.136 157.554 231.548 157.216C230.947 156.972 230.397 156.672 229.841 156.463C228.83 156.038 227.748 155.807 226.651 155.786C225.563 155.808 224.493 156.071 223.516 156.554C222.362 157.118 221.252 157.769 220.196 158.501Z" fill="#38101B"/>
<path d="M327.248 119.978C327.195 118.13 326.733 116.317 325.897 114.668C325.06 113.02 323.869 111.577 322.409 110.443C322.381 110.297 322.346 110.156 322.317 110.011C324.196 108.388 325.552 106.242 326.212 103.849C326.872 101.454 326.808 98.9173 326.026 96.5604C325.244 94.2031 323.78 92.1306 321.82 90.6053C319.86 89.0799 317.492 88.1702 315.015 87.9912C315.727 85.8418 315.842 83.5395 315.35 81.3294C314.857 79.1193 313.774 77.0842 312.217 75.4409C310.659 73.7976 308.685 72.6076 306.504 71.9976C304.323 71.3876 302.018 71.3805 299.834 71.977C299.833 71.8597 299.844 71.7452 299.841 71.6272C299.765 69.0181 298.878 66.4974 297.301 64.4166C295.726 62.3357 293.54 60.7981 291.048 60.018C288.558 59.2378 285.886 59.2539 283.404 60.0641C280.923 60.8741 278.756 62.438 277.205 64.5376C275.964 63.0479 274.394 61.8667 272.618 61.0871C270.841 60.3076 268.909 59.951 266.971 60.0456C265.035 60.14 263.146 60.6829 261.454 61.6315C259.763 62.5801 258.315 63.9085 257.224 65.5121C256.434 65.5091 255.652 65.5177 254.876 65.5342C253.841 63.0874 252.055 61.0327 249.776 59.6666C247.497 58.3003 244.844 57.6931 242.197 57.9327C239.551 58.1721 237.05 59.2458 235.053 60.9989C233.056 62.7521 231.668 65.094 231.088 67.6869C229.162 66.4756 226.943 65.8107 224.667 65.7633C222.391 65.7159 220.147 66.2877 218.171 67.4178C216.196 68.5479 214.564 70.1936 213.452 72.179C212.339 74.1644 211.788 76.4148 211.856 78.6897C211.865 79.0196 211.899 79.3428 211.933 79.6657C209.674 78.7895 207.209 78.587 204.836 79.0827C202.463 79.5785 200.285 80.7512 198.565 82.459C196.846 84.1668 195.657 86.3364 195.144 88.7055C194.632 91.0745 194.816 93.5414 195.676 95.8075C193.846 96.1218 192.109 96.8396 190.591 97.9088C189.072 98.9782 187.811 100.372 186.899 101.988C185.986 103.606 185.444 105.407 185.314 107.259C185.184 109.111 185.467 110.969 186.144 112.698C184.112 115.093 183.056 118.165 183.185 121.303C183.314 124.443 184.62 127.417 186.842 129.636C186.872 129.899 186.898 130.167 186.929 130.426C185.584 131.92 184.618 133.716 184.113 135.662C183.608 137.607 183.578 139.646 184.026 141.606C184.473 143.566 185.386 145.39 186.687 146.923C187.989 148.456 189.638 149.653 191.5 150.414C195.243 160.838 199.544 165.438 199.544 165.438C199.544 165.438 199.181 159.373 199.449 150.942C201.633 150.372 203.624 149.222 205.21 147.615C206.795 146.006 207.917 144.001 208.457 141.808C208.998 139.616 208.936 137.319 208.279 135.159C207.622 132.999 206.393 131.056 204.723 129.536C206.406 127.817 207.557 125.648 208.036 123.292C208.515 120.935 208.303 118.488 207.425 116.249C208.067 115.497 208.616 114.673 209.064 113.791C210.441 114.736 211.992 115.394 213.628 115.729C215.263 116.064 216.949 116.069 218.585 115.744C220.222 115.417 221.778 114.768 223.16 113.833C224.542 112.897 225.724 111.694 226.634 110.296C229.044 111.345 231.724 111.608 234.292 111.046C236.86 110.485 239.185 109.127 240.937 107.168C241.63 108.842 242.678 110.346 244.009 111.576C245.339 112.806 246.922 113.732 248.646 114.291C250.369 114.85 252.194 115.029 253.994 114.814C255.793 114.6 257.525 113.997 259.069 113.049C259.283 115.697 260.333 118.211 262.069 120.224C263.804 122.237 266.134 123.647 268.722 124.249C271.311 124.852 274.025 124.616 276.471 123.577C278.917 122.537 280.969 120.747 282.331 118.465C283.302 120.821 284.967 122.825 287.106 124.211C289.243 125.599 291.753 126.301 294.299 126.227C294.379 128.886 295.301 131.449 296.931 133.551C298.562 135.652 300.819 137.18 303.374 137.917C302.65 140.174 302.584 142.59 303.181 144.884C303.779 147.177 305.016 149.252 306.749 150.87C308.259 158.328 309.347 164.283 309.347 164.283C309.347 164.283 311.729 160.12 314.538 154.234C314.923 154.258 315.311 154.27 315.706 154.259C318.315 154.183 320.837 153.295 322.918 151.718C324.999 150.141 326.537 147.956 327.316 145.463C328.096 142.971 328.079 140.299 327.267 137.817C326.456 135.336 324.89 133.169 322.789 131.619C322.926 130.945 323.043 130.282 323.142 129.63C324.483 128.414 325.546 126.922 326.255 125.256C326.964 123.588 327.302 121.788 327.248 119.978Z" fill="#350313"/>
<path d="M231.247 198.409C231.247 198.409 268.623 194.78 276.034 197.562C276.034 197.562 259.638 209.257 255.733 208.632C251.828 208.008 231.247 198.409 231.247 198.409Z" fill="#FDFFFF"/>
<path d="M231.247 198.409C231.247 198.409 242.316 213.957 255.774 212.244C269.232 210.53 276.034 197.562 276.034 197.562C269.164 201.225 261.527 203.211 253.742 203.358C245.958 203.505 238.25 201.81 231.247 198.409Z" fill="#D7645D"/>
<path d="M231.247 198.409C231.247 198.409 245.94 190.81 276.034 197.562C276.034 197.562 256.213 198.272 231.247 198.409Z" fill="#A75844"/>
<path d="M254.985 185.288C255.179 186.39 255.149 187.521 254.897 188.612C254.665 189.712 254.283 190.775 253.761 191.771C252.671 193.806 251.143 195.574 249.289 196.949C247.431 198.324 245.333 199.341 243.102 199.946C242.557 200.099 242.004 200.228 241.45 200.359C241.086 200.472 240.762 200.547 240.418 200.638C239.742 200.766 239.048 201.035 238.353 201.19C235.571 202.03 232.618 202.986 229.457 204.047C227.852 204.543 226.229 205.107 224.515 205.657C224.066 205.782 223.655 205.937 223.217 206.08C222.757 206.215 222.348 206.378 221.893 206.525C221.426 206.682 221.026 206.843 220.543 207.029C220.329 207.113 220.11 207.211 219.875 207.329C219.646 207.453 219.431 207.603 219.234 207.774C219.117 207.507 219.05 207.221 219.036 206.93C219.026 206.65 219.025 206.349 219.039 206.04C219.102 205.479 219.211 204.923 219.364 204.381C219.657 203.329 220.061 202.311 220.567 201.344C221.547 199.477 222.791 197.763 224.263 196.253C227.238 193.189 230.96 190.952 235.061 189.76C236.133 189.461 237.224 189.237 238.326 189.09C238.881 189.028 239.457 188.95 239.992 188.91C240.337 188.889 240.684 188.867 241.038 188.867C242.443 188.833 243.845 188.724 245.238 188.54C248.669 188.106 251.981 187.001 254.985 185.288Z" fill="#350313"/>
<path d="M253.827 185.322C256.927 186.853 260.298 187.76 263.75 187.989C265.151 188.091 266.557 188.116 267.962 188.067C268.315 188.045 268.662 188.047 269.008 188.047C269.545 188.055 270.124 188.099 270.681 188.128C271.79 188.209 272.894 188.368 273.98 188.603C278.145 189.548 281.993 191.561 285.146 194.442C286.705 195.862 288.049 197.5 289.137 199.306C289.7 200.241 290.164 201.232 290.519 202.264C290.704 202.797 290.846 203.345 290.941 203.902C290.974 204.209 290.992 204.51 290.998 204.79C291.002 205.081 290.951 205.372 290.85 205.644C290.645 205.485 290.42 205.349 290.185 205.238C289.943 205.135 289.719 205.049 289.499 204.978C289.006 204.821 288.598 204.685 288.122 204.557C287.659 204.436 287.241 204.297 286.774 204.191C286.329 204.073 285.908 203.943 285.453 203.845C283.709 203.398 282.056 202.932 280.424 202.532C277.205 201.661 274.201 200.881 271.374 200.209C270.672 200.095 269.963 199.868 269.28 199.78C268.931 199.71 268.604 199.654 268.233 199.563C267.673 199.465 267.113 199.369 266.559 199.249C264.297 198.777 262.142 197.888 260.206 196.623C258.273 195.362 256.643 193.687 255.434 191.722C254.853 190.759 254.409 189.72 254.113 188.635C253.796 187.562 253.698 186.435 253.827 185.322Z" fill="#350313"/>
<path d="M267.261 183.322C263.846 186.996 259.257 189.363 254.284 190.018C254.44 190.04 254.596 190.048 254.751 190.056L253.821 190.084C253.975 190.067 254.13 190.049 254.284 190.018C249.364 189.674 244.711 187.65 241.107 184.282L267.261 183.322Z" fill="#B86A55"/>
<path d="M287.168 186.703C294.812 186.703 301.009 182.017 301.009 176.235C301.009 170.453 294.812 165.767 287.168 165.767C279.523 165.767 273.326 170.453 273.326 176.235C273.326 182.017 279.523 186.703 287.168 186.703Z" fill="url(#paint2_radial_2_2)"/>
<path d="M220.196 186.703C227.841 186.703 234.037 182.017 234.037 176.235C234.037 170.453 227.841 165.767 220.196 165.767C212.552 165.767 206.355 170.453 206.355 176.235C206.355 182.017 212.552 186.703 220.196 186.703Z" fill="url(#paint3_radial_2_2)"/>
<path d="M393.103 521.283H118.905L119.659 509.022L138.036 308.238L209.344 283.312L209.654 283.395L255.136 295.409L255.188 295.398L300.289 283.498L301.001 283.312L372.784 308.559L372.95 308.61L392.349 509.022L393.103 521.283Z" fill="#EAA05F"/>
<path d="M212.313 272.816L209.346 283.312L227.829 335.793L255.211 295.405L212.313 272.816Z" fill="#D2D3D5"/>
<path d="M298.037 272.816L301.002 283.312L282.52 335.793L255.138 295.405L298.037 272.816Z" fill="#D2D3D5"/>
<path d="M237.11 322.105C237.11 322.105 256.931 338.223 272.339 320.777L255.138 295.405L237.11 322.105Z" fill="#E25050"/>
</g>
<defs>
<radialGradient id="paint0_radial_2_2" cx="0" cy="0" r="1" gradientUnits="userSpaceOnUse" gradientTransform="translate(287.502 176.677) scale(10.5851 19.442)">
<stop stop-color="#EC7765"/>
<stop offset="0.349" stop-color="#EC7C66"/>
<stop offset="0.77" stop-color="#EA8B6B"/>
<stop offset="1" stop-color="#E9966E"/>
</radialGradient>
<radialGradient id="paint1_radial_2_2" cx="0" cy="0" r="1" gradientUnits="userSpaceOnUse" gradientTransform="translate(220.531 176.677) scale(10.5851 19.442)">
<stop stop-color="#EC7765"/>
<stop offset="0.349" stop-color="#EC7C66"/>
<stop offset="0.77" stop-color="#EA8B6B"/>
<stop offset="1" stop-color="#E9966E"/>
</radialGradient>
<radialGradient id="paint2_radial_2_2" cx="0" cy="0" r="1" gradientUnits="userSpaceOnUse" gradientTransform="translate(287.168 176.237) scale(10.5851 19.442)">
<stop stop-color="#EC7765"/>
<stop offset="0.349" stop-color="#EC7C66"/>
<stop offset="0.77" stop-color="#EA8B6B"/>
<stop offset="1" stop-color="#E9966E"/>
</radialGradient>
<radialGradient id="paint3_radial_2_2" cx="0" cy="0" r="1" gradientUnits="userSpaceOnUse" gradientTransform="translate(220.196 176.237) scale(10.5851 19.442)">
<stop stop-color="#EC7765"/>
<stop offset="0.349" stop-color="#EC7C66"/>
<stop offset="0.77" stop-color="#EA8B6B"/>
<stop offset="1" stop-color="#E9966E"/>
</radialGradient>
<clipPath id="clip0_2_2">
<rect width="512" height="512" fill="white"/>
</clipPath>
</defs>
</svg>
